<svg xmlns="http://www.w3.org/2000/svg" xmlns:xlink="http://www.w3.org/1999/xlink" width="2000" zoomAndPan="magnify" viewBox="0 0 1500 1499.999933" height="2000" preserveAspectRatio="xMidYMid meet" version="1.0"><defs><clipPath id="ec84491537"><path d="M 0.238281 0.878906 L 1397 0.878906 L 1397 1092.71875 L 0.238281 1092.71875 Z M 0.238281 0.878906 " clip-rule="nonzero"/></clipPath><clipPath id="c6c54942e6"><path d="M 375.441406 380.492188 L 566.550781 380.492188 L 566.550781 571.605469 L 375.441406 571.605469 Z M 375.441406 380.492188 " clip-rule="nonzero"/></clipPath><clipPath id="8ffe0befa3"><path d="M 470.996094 380.492188 C 418.222656 380.492188 375.441406 423.273438 375.441406 476.046875 C 375.441406 528.820312 418.222656 571.605469 470.996094 571.605469 C 523.769531 571.605469 566.550781 528.820312 566.550781 476.046875 C 566.550781 423.273438 523.769531 380.492188 470.996094 380.492188 Z M 470.996094 380.492188 " clip-rule="nonzero"/></clipPath><clipPath id="f0266e9053"><path d="M 0.441406 0.492188 L 191.550781 0.492188 L 191.550781 191.605469 L 0.441406 191.605469 Z M 0.441406 0.492188 " clip-rule="nonzero"/></clipPath><clipPath id="8497eb622b"><path d="M 95.996094 0.492188 C 43.222656 0.492188 0.441406 43.273438 0.441406 96.046875 C 0.441406 148.820312 43.222656 191.605469 95.996094 191.605469 C 148.769531 191.605469 191.550781 148.820312 191.550781 96.046875 C 191.550781 43.273438 148.769531 0.492188 95.996094 0.492188 Z M 95.996094 0.492188 " clip-rule="nonzero"/></clipPath><clipPath id="d704961c04"><rect x="0" width="192" y="0" height="192"/></clipPath><clipPath id="a8eaa1e5ad"><path d="M 837.164062 380.492188 L 1028.277344 380.492188 L 1028.277344 571.605469 L 837.164062 571.605469 Z M 837.164062 380.492188 " clip-rule="nonzero"/></clipPath><clipPath id="89fa8d0a69"><path d="M 932.722656 380.492188 C 879.945312 380.492188 837.164062 423.273438 837.164062 476.046875 C 837.164062 528.820312 879.945312 571.605469 932.722656 571.605469 C 985.496094 571.605469 1028.277344 528.820312 1028.277344 476.046875 C 1028.277344 423.273438 985.496094 380.492188 932.722656 380.492188 Z M 932.722656 380.492188 " clip-rule="nonzero"/></clipPath><clipPath id="c4dfa1447b"><path d="M 0.164062 0.492188 L 191.277344 0.492188 L 191.277344 191.605469 L 0.164062 191.605469 Z M 0.164062 0.492188 " clip-rule="nonzero"/></clipPath><clipPath id="cfc08154a2"><path d="M 95.722656 0.492188 C 42.945312 0.492188 0.164062 43.273438 0.164062 96.046875 C 0.164062 148.820312 42.945312 191.605469 95.722656 191.605469 C 148.496094 191.605469 191.277344 148.820312 191.277344 96.046875 C 191.277344 43.273438 148.496094 0.492188 95.722656 0.492188 Z M 95.722656 0.492188 " clip-rule="nonzero"/></clipPath><clipPath id="9e4c2e6e20"><rect x="0" width="192" y="0" height="192"/></clipPath><clipPath id="607987bcd4"><path d="M 395.121094 696.050781 L 997 696.050781 L 997 965.027344 L 395.121094 965.027344 Z M 395.121094 696.050781 " clip-rule="nonzero"/></clipPath><clipPath id="ca3a57811b"><path d="M 595.816406 950.203125 C 626.664062 959.15625 661.738281 965.027344 696.160156 965.027344 C 730.585938 965.027344 763.710938 959.992188 794.234375 951.039062 C 794.886719 950.761719 795.535156 950.761719 796.183594 950.480469 C 910.820312 914.671875 995.253906 820.113281 996.878906 717.671875 L 996.878906 696.050781 L 395.121094 696.050781 L 395.121094 717.65625 C 396.746094 820.671875 479.878906 915.230469 595.816406 950.203125 Z M 595.816406 950.203125 " clip-rule="nonzero"/></clipPath><clipPath id="8dcc792375"><path d="M 0.121094 0.0507812 L 601.960938 0.0507812 L 601.960938 269.027344 L 0.121094 269.027344 Z M 0.121094 0.0507812 " clip-rule="nonzero"/></clipPath><clipPath id="cfd4e05815"><path d="M 200.816406 254.203125 C 231.664062 263.15625 266.738281 269.027344 301.160156 269.027344 C 335.585938 269.027344 368.710938 263.992188 399.234375 255.039062 C 399.886719 254.761719 400.535156 254.761719 401.183594 254.480469 C 515.820312 218.671875 600.253906 124.113281 601.878906 21.671875 L 601.878906 0.0507812 L 0.121094 0.0507812 L 0.121094 21.65625 C 1.746094 124.671875 84.878906 219.230469 200.816406 254.203125 Z M 200.816406 254.203125 " clip-rule="nonzero"/></clipPath><clipPath id="1da6cd59cd"><rect x="0" width="602" y="0" height="270"/></clipPath><clipPath id="39663beb36"><rect x="0" width="1398" y="0" height="1093"/></clipPath></defs><g transform="matrix(1, 0, 0, 1, 54, 192)"><g clip-path="url(#39663beb36)"><g clip-path="url(#ec84491537)"><path fill="#1358b4" d="M 448.027344 0.921875 L 438.011719 16.832031 C 402.160156 75.851562 366.355469 119.066406 330.601562 146.46875 C 313.484375 162.480469 262.84375 188.425781 178.675781 224.308594 C 144.316406 244.09375 124.15625 257.5 118.199219 264.519531 C 74.917969 307.398438 48.242188 347.179688 38.171875 383.867188 C 4.84375 474.75 -6.199219 573.980469 5.042969 681.570312 C 18.019531 784.1875 56.394531 866.539062 120.167969 928.625 C 245.144531 1052.902344 466.765625 1106.378906 785.035156 1089.058594 C 942.273438 1081.976562 1055.671875 1064.492188 1125.238281 1036.605469 C 1214.074219 1007.675781 1282.761719 954.84375 1331.304688 878.109375 C 1342.480469 867.488281 1359.476562 823.78125 1382.285156 746.992188 C 1396.664062 682.476562 1400.28125 617.148438 1393.136719 551.003906 C 1382.148438 449.78125 1348.113281 367.640625 1291.019531 304.582031 C 1245.441406 248.179688 1163.730469 203.101562 1045.878906 169.355469 C 991.851562 156.78125 943.554688 149.589844 900.992188 147.785156 C 884.242188 144.136719 799.140625 145.746094 645.691406 152.617188 C 617.714844 152.28125 593.667969 148.488281 573.554688 141.242188 C 522.921875 121.117188 481.082031 74.34375 448.027344 0.921875 " fill-opacity="1" fill-rule="nonzero"/></g><g clip-path="url(#c6c54942e6)"><g clip-path="url(#8ffe0befa3)"><g transform="matrix(1, 0, 0, 1, 375, 380)"><g clip-path="url(#d704961c04)"><g clip-path="url(#f0266e9053)"><g clip-path="url(#8497eb622b)"><path fill="#ffffff" d="M 0.441406 0.492188 L 191.550781 0.492188 L 191.550781 191.605469 L 0.441406 191.605469 Z M 0.441406 0.492188 " fill-opacity="1" fill-rule="nonzero"/></g></g></g></g></g></g><g clip-path="url(#a8eaa1e5ad)"><g clip-path="url(#89fa8d0a69)"><g transform="matrix(1, 0, 0, 1, 837, 380)"><g clip-path="url(#9e4c2e6e20)"><g clip-path="url(#c4dfa1447b)"><g clip-path="url(#cfc08154a2)"><path fill="#ffffff" d="M 0.164062 0.492188 L 191.277344 0.492188 L 191.277344 191.605469 L 0.164062 191.605469 Z M 0.164062 0.492188 " fill-opacity="1" fill-rule="nonzero"/></g></g></g></g></g></g><g clip-path="url(#607987bcd4)"><g clip-path="url(#ca3a57811b)"><g transform="matrix(1, 0, 0, 1, 395, 696)"><g clip-path="url(#1da6cd59cd)"><g clip-path="url(#8dcc792375)"><g clip-path="url(#cfd4e05815)"><path fill="#ffffff" d="M 0.121094 0.0507812 L 602.167969 0.0507812 L 602.167969 269.027344 L 0.121094 269.027344 Z M 0.121094 0.0507812 " fill-opacity="1" fill-rule="nonzero"/></g></g></g></g></g></g></g></g></svg>