<svg xmlns="http://www.w3.org/2000/svg" xmlns:xlink="http://www.w3.org/1999/xlink" width="2000" zoomAndPan="magnify" viewBox="0 0 1500 1499.999933" height="2000" preserveAspectRatio="xMidYMid meet" version="1.0"><defs><g/><clipPath id="628836e635"><path d="M 1 8.417969 L 427 8.417969 L 427 342 L 1 342 Z M 1 8.417969 " clip-rule="nonzero"/></clipPath><clipPath id="fd08247742"><path d="M 115.355469 124.183594 L 173.636719 124.183594 L 173.636719 182.464844 L 115.355469 182.464844 Z M 115.355469 124.183594 " clip-rule="nonzero"/></clipPath><clipPath id="03a50457f9"><path d="M 144.496094 124.183594 C 128.402344 124.183594 115.355469 137.230469 115.355469 153.324219 C 115.355469 169.417969 128.402344 182.464844 144.496094 182.464844 C 160.589844 182.464844 173.636719 169.417969 173.636719 153.324219 C 173.636719 137.230469 160.589844 124.183594 144.496094 124.183594 Z M 144.496094 124.183594 " clip-rule="nonzero"/></clipPath><clipPath id="13559c3a23"><path d="M 0.355469 0.183594 L 58.636719 0.183594 L 58.636719 58.464844 L 0.355469 58.464844 Z M 0.355469 0.183594 " clip-rule="nonzero"/></clipPath><clipPath id="23714683c2"><path d="M 29.496094 0.183594 C 13.402344 0.183594 0.355469 13.230469 0.355469 29.324219 C 0.355469 45.417969 13.402344 58.464844 29.496094 58.464844 C 45.589844 58.464844 58.636719 45.417969 58.636719 29.324219 C 58.636719 13.230469 45.589844 0.183594 29.496094 0.183594 Z M 29.496094 0.183594 " clip-rule="nonzero"/></clipPath><clipPath id="785c21b994"><rect x="0" width="59" y="0" height="59"/></clipPath><clipPath id="a94dec1821"><path d="M 256.164062 124.183594 L 314.441406 124.183594 L 314.441406 182.464844 L 256.164062 182.464844 Z M 256.164062 124.183594 " clip-rule="nonzero"/></clipPath><clipPath id="47e79a2fdd"><path d="M 285.300781 124.183594 C 269.207031 124.183594 256.164062 137.230469 256.164062 153.324219 C 256.164062 169.417969 269.207031 182.464844 285.300781 182.464844 C 301.394531 182.464844 314.441406 169.417969 314.441406 153.324219 C 314.441406 137.230469 301.394531 124.183594 285.300781 124.183594 Z M 285.300781 124.183594 " clip-rule="nonzero"/></clipPath><clipPath id="13da6b909f"><path d="M 0.164062 0.183594 L 58.441406 0.183594 L 58.441406 58.464844 L 0.164062 58.464844 Z M 0.164062 0.183594 " clip-rule="nonzero"/></clipPath><clipPath id="e472328863"><path d="M 29.300781 0.183594 C 13.207031 0.183594 0.164062 13.230469 0.164062 29.324219 C 0.164062 45.417969 13.207031 58.464844 29.300781 58.464844 C 45.394531 58.464844 58.441406 45.417969 58.441406 29.324219 C 58.441406 13.230469 45.394531 0.183594 29.300781 0.183594 Z M 29.300781 0.183594 " clip-rule="nonzero"/></clipPath><clipPath id="37a900cc94"><rect x="0" width="59" y="0" height="59"/></clipPath><clipPath id="807e55478e"><path d="M 121.359375 220.414062 L 304.957031 220.414062 L 304.957031 302.441406 L 121.359375 302.441406 Z M 121.359375 220.414062 " clip-rule="nonzero"/></clipPath><clipPath id="4900165703"><path d="M 182.5625 297.917969 C 191.96875 300.648438 202.664062 302.441406 213.164062 302.441406 C 223.660156 302.441406 233.761719 300.90625 243.070312 298.175781 C 243.269531 298.089844 243.46875 298.089844 243.664062 298.003906 C 278.625 287.085938 304.375 258.25 304.867188 227.007812 L 304.867188 220.414062 L 121.359375 220.414062 L 121.359375 227.003906 C 121.851562 258.417969 147.207031 287.253906 182.5625 297.917969 Z M 182.5625 297.917969 " clip-rule="nonzero"/></clipPath><clipPath id="daacbaa85b"><path d="M 0.359375 0.414062 L 183.957031 0.414062 L 183.957031 82.441406 L 0.359375 82.441406 Z M 0.359375 0.414062 " clip-rule="nonzero"/></clipPath><clipPath id="0ee7b69b30"><path d="M 61.5625 77.917969 C 70.96875 80.648438 81.664062 82.441406 92.164062 82.441406 C 102.660156 82.441406 112.761719 80.90625 122.070312 78.175781 C 122.269531 78.089844 122.46875 78.089844 122.664062 78.003906 C 157.625 67.085938 183.375 38.25 183.867188 7.007812 L 183.867188 0.414062 L 0.359375 0.414062 L 0.359375 7.003906 C 0.851562 38.417969 26.207031 67.253906 61.5625 77.917969 Z M 61.5625 77.917969 " clip-rule="nonzero"/></clipPath><clipPath id="9970a80000"><rect x="0" width="184" y="0" height="83"/></clipPath><clipPath id="2eb1266b53"><path d="M 503 0.398438 L 1373.320312 0.398438 L 1373.320312 387.761719 L 503 387.761719 Z M 503 0.398438 " clip-rule="nonzero"/></clipPath><clipPath id="12038bb405"><rect x="0" width="871" y="0" height="388"/></clipPath><clipPath id="da9304a132"><rect x="0" width="1374" y="0" height="388"/></clipPath></defs><g transform="matrix(1, 0, 0, 1, 59, 566)"><g clip-path="url(#da9304a132)"><g clip-path="url(#628836e635)"><path fill="#1358b4" d="M 137.488281 8.429688 L 134.433594 13.28125 C 123.5 31.28125 112.582031 44.457031 101.679688 52.816406 C 96.460938 57.695312 81.015625 65.609375 55.351562 76.550781 C 44.871094 82.585938 38.722656 86.671875 36.90625 88.8125 C 23.710938 101.890625 15.574219 114.019531 12.503906 125.210938 C 2.339844 152.921875 -1.027344 183.183594 2.398438 215.992188 C 6.359375 247.285156 18.058594 272.398438 37.507812 291.332031 C 75.621094 329.230469 143.203125 345.539062 240.257812 340.257812 C 288.207031 338.097656 322.789062 332.765625 344.003906 324.261719 C 371.09375 315.4375 392.042969 299.328125 406.84375 275.925781 C 410.253906 272.6875 415.433594 259.359375 422.390625 235.945312 C 426.777344 216.269531 427.878906 196.347656 425.699219 176.175781 C 422.347656 145.308594 411.96875 120.261719 394.558594 101.03125 C 380.660156 83.832031 355.742188 70.085938 319.804688 59.792969 C 303.328125 55.960938 288.601562 53.765625 275.621094 53.214844 C 270.511719 52.101562 244.5625 52.59375 197.765625 54.6875 C 189.234375 54.585938 181.902344 53.429688 175.769531 51.21875 C 160.328125 45.082031 147.570312 30.820312 137.488281 8.429688 " fill-opacity="1" fill-rule="nonzero"/></g><g clip-path="url(#fd08247742)"><g clip-path="url(#03a50457f9)"><g transform="matrix(1, 0, 0, 1, 115, 124)"><g clip-path="url(#785c21b994)"><g clip-path="url(#13559c3a23)"><g clip-path="url(#23714683c2)"><path fill="#ffffff" d="M 0.355469 0.183594 L 58.636719 0.183594 L 58.636719 58.464844 L 0.355469 58.464844 Z M 0.355469 0.183594 " fill-opacity="1" fill-rule="nonzero"/></g></g></g></g></g></g><g clip-path="url(#a94dec1821)"><g clip-path="url(#47e79a2fdd)"><g transform="matrix(1, 0, 0, 1, 256, 124)"><g clip-path="url(#37a900cc94)"><g clip-path="url(#13da6b909f)"><g clip-path="url(#e472328863)"><path fill="#ffffff" d="M 0.164062 0.183594 L 58.441406 0.183594 L 58.441406 58.464844 L 0.164062 58.464844 Z M 0.164062 0.183594 " fill-opacity="1" fill-rule="nonzero"/></g></g></g></g></g></g><g clip-path="url(#807e55478e)"><g clip-path="url(#4900165703)"><g transform="matrix(1, 0, 0, 1, 121, 220)"><g clip-path="url(#9970a80000)"><g clip-path="url(#daacbaa85b)"><g clip-path="url(#0ee7b69b30)"><path fill="#ffffff" d="M 0.359375 0.414062 L 183.957031 0.414062 L 183.957031 82.441406 L 0.359375 82.441406 Z M 0.359375 0.414062 " fill-opacity="1" fill-rule="nonzero"/></g></g></g></g></g></g><g clip-path="url(#2eb1266b53)"><g transform="matrix(1, 0, 0, 1, 503, 0.000000000000113687)"><g clip-path="url(#12038bb405)"><g fill="#104489" fill-opacity="1"><g transform="translate(0.888872, 286.338803)"><g><path d="M 9.234375 -98.46875 C 9.234375 -117.863281 13.425781 -135.160156 21.8125 -150.359375 C 30.207031 -165.554688 41.910156 -177.394531 56.921875 -185.875 C 71.929688 -194.363281 88.953125 -198.609375 107.984375 -198.609375 C 131.285156 -198.609375 151.234375 -192.453125 167.828125 -180.140625 C 184.429688 -167.835938 195.53125 -151.054688 201.125 -129.796875 L 148.53125 -129.796875 C 144.625 -138.003906 139.078125 -144.25 131.890625 -148.53125 C 124.710938 -152.820312 116.554688 -154.96875 107.421875 -154.96875 C 92.679688 -154.96875 80.742188 -149.835938 71.609375 -139.578125 C 62.472656 -129.328125 57.90625 -115.625 57.90625 -98.46875 C 57.90625 -81.3125 62.472656 -67.601562 71.609375 -57.34375 C 80.742188 -47.082031 92.679688 -41.953125 107.421875 -41.953125 C 116.554688 -41.953125 124.710938 -44.097656 131.890625 -48.390625 C 139.078125 -52.679688 144.625 -58.929688 148.53125 -67.140625 L 201.125 -67.140625 C 195.53125 -45.878906 184.429688 -29.140625 167.828125 -16.921875 C 151.234375 -4.703125 131.285156 1.40625 107.984375 1.40625 C 88.953125 1.40625 71.929688 -2.835938 56.921875 -11.328125 C 41.910156 -19.816406 30.207031 -31.613281 21.8125 -46.71875 C 13.425781 -61.820312 9.234375 -79.070312 9.234375 -98.46875 Z M 9.234375 -98.46875 "/></g></g></g><g fill="#104489" fill-opacity="1"><g transform="translate(213.992734, 286.338803)"><g><path d="M 65.171875 -207 L 65.171875 0 L 17.34375 0 L 17.34375 -207 Z M 65.171875 -207 "/></g></g></g><g fill="#104489" fill-opacity="1"><g transform="translate(296.493534, 286.338803)"><g><path d="M 7.828125 -78.328125 C 7.828125 -94.359375 10.859375 -108.4375 16.921875 -120.5625 C 22.984375 -132.6875 31.234375 -142.007812 41.671875 -148.53125 C 52.117188 -155.0625 63.773438 -158.328125 76.640625 -158.328125 C 87.648438 -158.328125 97.300781 -156.085938 105.59375 -151.609375 C 113.894531 -147.140625 120.285156 -141.269531 124.765625 -134 L 124.765625 -156.09375 L 172.59375 -156.09375 L 172.59375 0 L 124.765625 0 L 124.765625 -22.09375 C 120.097656 -14.820312 113.613281 -8.945312 105.3125 -4.46875 C 97.019531 0 87.375 2.234375 76.375 2.234375 C 63.6875 2.234375 52.117188 -1.070312 41.671875 -7.6875 C 31.234375 -14.3125 22.984375 -23.726562 16.921875 -35.9375 C 10.859375 -48.15625 7.828125 -62.285156 7.828125 -78.328125 Z M 124.765625 -78.046875 C 124.765625 -89.984375 121.453125 -99.398438 114.828125 -106.296875 C 108.210938 -113.203125 100.148438 -116.65625 90.640625 -116.65625 C 81.128906 -116.65625 73.0625 -113.25 66.4375 -106.4375 C 59.8125 -99.632812 56.5 -90.265625 56.5 -78.328125 C 56.5 -66.390625 59.8125 -56.921875 66.4375 -49.921875 C 73.0625 -42.929688 81.128906 -39.4375 90.640625 -39.4375 C 100.148438 -39.4375 108.210938 -42.882812 114.828125 -49.78125 C 121.453125 -56.6875 124.765625 -66.109375 124.765625 -78.046875 Z M 124.765625 -78.046875 "/></g></g></g><g fill="#104489" fill-opacity="1"><g transform="translate(486.385265, 286.338803)"><g><path d="M 65.171875 -130.078125 C 70.765625 -138.648438 77.757812 -145.40625 86.15625 -150.34375 C 94.550781 -155.289062 103.875 -157.765625 114.125 -157.765625 L 114.125 -107.140625 L 100.984375 -107.140625 C 89.046875 -107.140625 80.09375 -104.570312 74.125 -99.4375 C 68.15625 -94.3125 65.171875 -85.316406 65.171875 -72.453125 L 65.171875 0 L 17.34375 0 L 17.34375 -156.09375 L 65.171875 -156.09375 Z M 65.171875 -130.078125 "/></g></g></g><g fill="#104489" fill-opacity="1"><g transform="translate(606.081387, 286.338803)"><g><path d="M 41.40625 -172.3125 C 33.007812 -172.3125 26.15625 -174.78125 20.84375 -179.71875 C 15.53125 -184.664062 12.875 -190.773438 12.875 -198.046875 C 12.875 -205.503906 15.53125 -211.703125 20.84375 -216.640625 C 26.15625 -221.585938 33.007812 -224.0625 41.40625 -224.0625 C 49.601562 -224.0625 56.359375 -221.585938 61.671875 -216.640625 C 66.992188 -211.703125 69.65625 -205.503906 69.65625 -198.046875 C 69.65625 -190.773438 66.992188 -184.664062 61.671875 -179.71875 C 56.359375 -174.78125 49.601562 -172.3125 41.40625 -172.3125 Z M 65.171875 -156.09375 L 65.171875 0 L 17.34375 0 L 17.34375 -156.09375 Z M 65.171875 -156.09375 "/></g></g></g><g fill="#104489" fill-opacity="1"><g transform="translate(688.582187, 286.338803)"><g><path d="M 88.390625 2.234375 C 73.097656 2.234375 59.34375 -1.023438 47.125 -7.546875 C 34.914062 -14.078125 25.3125 -23.398438 18.3125 -35.515625 C 11.320312 -47.640625 7.828125 -61.816406 7.828125 -78.046875 C 7.828125 -94.085938 11.367188 -108.210938 18.453125 -120.421875 C 25.546875 -132.640625 35.242188 -142.007812 47.546875 -148.53125 C 59.859375 -155.0625 73.660156 -158.328125 88.953125 -158.328125 C 104.242188 -158.328125 118.039062 -155.0625 130.34375 -148.53125 C 142.65625 -142.007812 152.351562 -132.640625 159.4375 -120.421875 C 166.53125 -108.210938 170.078125 -94.085938 170.078125 -78.046875 C 170.078125 -62.003906 166.484375 -47.875 159.296875 -35.65625 C 152.117188 -23.445312 142.328125 -14.078125 129.921875 -7.546875 C 117.523438 -1.023438 103.679688 2.234375 88.390625 2.234375 Z M 88.390625 -39.15625 C 97.535156 -39.15625 105.320312 -42.507812 111.75 -49.21875 C 118.1875 -55.9375 121.40625 -65.546875 121.40625 -78.046875 C 121.40625 -90.535156 118.28125 -100.132812 112.03125 -106.84375 C 105.78125 -113.5625 98.085938 -116.921875 88.953125 -116.921875 C 79.628906 -116.921875 71.890625 -113.609375 65.734375 -106.984375 C 59.578125 -100.367188 56.5 -90.722656 56.5 -78.046875 C 56.5 -65.546875 59.53125 -55.9375 65.59375 -49.21875 C 71.65625 -42.507812 79.253906 -39.15625 88.390625 -39.15625 Z M 88.390625 -39.15625 "/></g></g></g></g></g></g></g></g></svg>